<svg width="22" height="23" viewBox="0 0 22 23" fill="none" xmlns="http://www.w3.org/2000/svg">
<path d="M8.66667 0.333252C7.37983 0.333252 6.33333 1.37975 6.33333 2.66659V4.99992H0.5V20.1666C0.5 21.4534 1.5465 22.4999 2.83333 22.4999H19.1667C20.4535 22.4999 21.5 21.4534 21.5 20.1666V4.99992H15.6667V2.66659C15.6667 1.37975 14.6202 0.333252 13.3333 0.333252H8.66667ZM8.66667 2.66659H13.3333V4.99992H8.66667V2.66659ZM2.83333 7.33325H19.1667L19.1689 20.1666H2.83333V7.33325ZM7.5 9.66658C6.856 9.66658 6.33333 10.1893 6.33333 10.8333C6.33333 11.4773 6.856 11.9999 7.5 11.9999C8.144 11.9999 8.66667 11.4773 8.66667 10.8333C8.66667 10.1893 8.144 9.66658 7.5 9.66658ZM14.5 9.66658C13.856 9.66658 13.3333 10.1893 13.3333 10.8333C13.3333 11.4773 13.856 11.9999 14.5 11.9999C15.144 11.9999 15.6667 11.4773 15.6667 10.8333C15.6667 10.1893 15.144 9.66658 14.5 9.66658Z" fill="#1D1D1D"/>
</svg>
